<svg width="24" height="24" viewBox="0 0 24 24" fill="none" xmlns="http://www.w3.org/2000/svg">
    <path d="M3.99998 10.0235H9.19998C9.42118 10.0235 9.59998 9.82822 9.59998 9.58766C9.59998 9.34709 9.42118 9.15186 9.19998 9.15186H3.99998C3.77878 9.15186 3.59998 9.34709 3.59998 9.58766C3.59998 9.82822 3.77878 10.0235 3.99998 10.0235Z" fill="#8A8A8A"/>
    <path d="M14.4 11.7666H3.99998C3.77878 11.7666 3.59998 11.9618 3.59998 12.2024C3.59998 12.443 3.77878 12.6382 3.99998 12.6382H14.4C14.6212 12.6382 14.8 12.443 14.8 12.2024C14.8 11.9618 14.6212 11.7666 14.4 11.7666Z" fill="#8A8A8A"/>
    <path d="M14.4 14.3815H3.99998C3.77878 14.3815 3.59998 14.5767 3.59998 14.8173C3.59998 15.0578 3.77878 15.2531 3.99998 15.2531H14.4C14.6212 15.2531 14.8 15.0578 14.8 14.8173C14.8 14.5767 14.6212 14.3815 14.4 14.3815Z" fill="#8A8A8A"/>
    <path d="M21.6288 0.0305061L7.972 0C6.664 0 5.6 1.15923 5.6 2.5843V4.81734L2.372 4.82475C1.064 4.82475 0 5.98398 0 7.40905V16.6223C0 18.0474 1.064 19.2062 2.372 19.2062H4.8V23.5642C4.8 23.7442 4.9016 23.9059 5.056 23.9708C5.1028 23.9904 5.1516 24 5.2 24C5.3104 24 5.4188 23.9499 5.496 23.8575L9.3776 19.2053L16.028 19.1757C17.336 19.1757 18.4 18.0165 18.4 16.5918V16.5426L20.504 19.0641C20.5812 19.1565 20.6896 19.2066 20.8 19.2066C20.8484 19.2066 20.8972 19.197 20.944 19.1774C21.0984 19.1125 21.2 18.9508 21.2 18.7708V14.4128H21.628C22.936 14.4128 24 13.2536 24 11.8289V2.61481C24 1.19017 22.9364 0.030942 21.6288 0.0305061ZM17.6 16.5914C17.6 17.5358 16.8948 18.3036 16.0264 18.3036L9.1984 18.3342C9.0864 18.3346 8.9792 18.3864 8.904 18.4767L5.6 22.4368V18.77C5.6 18.5294 5.4212 18.3342 5.2 18.3342H2.372C1.5052 18.3342 0.8 17.5658 0.8 16.6219V7.40862C0.8 6.46424 1.5052 5.69592 2.3728 5.69592L6 5.68764C6.0004 5.68764 6.0004 5.68764 6.0008 5.68764L16.028 5.66498C16.8948 5.66498 17.6 6.43329 17.6 7.37768V15.4143V16.5914ZM23.2 11.8281C23.2 12.7725 22.4948 13.5403 21.628 13.5403H20.8C20.5788 13.5403 20.4 13.7356 20.4 13.9761V17.643L18.4 15.2461V7.37811C18.4 5.95304 17.336 4.79381 16.0272 4.79381L6.4 4.81517V2.58386C6.4 1.63948 7.1052 0.871166 7.9712 0.871166L21.6276 0.901672C21.628 0.901672 21.628 0.901672 21.6284 0.901672C22.4952 0.901672 23.2004 1.66999 23.2004 2.61437V11.8281H23.2Z" fill="#8A8A8A"/>
</svg>
