<svg width="32" height="32" viewBox="0 0 32 32" fill="none" xmlns="http://www.w3.org/2000/svg">
    <path fill-rule="evenodd" clip-rule="evenodd" d="M24.8134 18.5L17.2372 26.0761L16.2944 25.1333L23.8706 17.5572L24.8134 18.5Z" fill="#FFD480"/>
    <path fill-rule="evenodd" clip-rule="evenodd" d="M22.2992 15.9859L14.7231 23.5621L13.7803 22.6193L21.3564 15.0431L22.2992 15.9859Z" fill="#FFD480"/>
    <path fill-rule="evenodd" clip-rule="evenodd" d="M16.9567 10.6433L9.38055 18.2194L8.43774 17.2766L16.0139 9.70047L16.9567 10.6433Z" fill="#FFD480"/>
    <path fill-rule="evenodd" clip-rule="evenodd" d="M14.4425 8.12924L6.86639 15.7054L5.92358 14.7626L13.4997 7.18643L14.4425 8.12924Z" fill="#FFD480"/>
    <path fill-rule="evenodd" clip-rule="evenodd" d="M14.4426 8.1291C17.0577 5.51398 21.2882 5.50456 23.8917 8.10806C26.4952 10.7116 26.4858 14.9421 23.8707 17.5572L24.8135 18.5C27.9516 15.3619 27.9629 10.2852 24.8387 7.16104C21.7145 4.03684 16.6379 4.04815 13.4998 7.18629L14.4426 8.1291Z" fill="#FFD480"/>
    <path fill-rule="evenodd" clip-rule="evenodd" d="M9.38055 18.2194L8.43774 17.2766C5.99696 19.7174 5.98817 23.6659 8.4181 26.0958C10.848 28.5258 14.7965 28.517 17.2373 26.0762L16.2945 25.1334C14.3767 27.0511 11.2743 27.058 9.36511 25.1488C7.45588 23.2396 7.46279 20.1372 9.38055 18.2194Z" fill="#FFD480"/>
    <path fill-rule="evenodd" clip-rule="evenodd" d="M22.2991 15.9856C24.0425 14.2422 24.0488 11.4218 22.3131 9.68617C20.5774 7.95051 17.7571 7.95679 16.0137 9.7002L16.9565 10.643C18.1769 9.42262 20.1511 9.41823 21.3661 10.6332C22.581 11.8482 22.5767 13.8224 21.3563 15.0428L22.2991 15.9856Z" fill="#FFD480"/>
</svg>
