<svg width="49" height="48" viewBox="0 0 49 48" fill="none" xmlns="http://www.w3.org/2000/svg">
    <path fill-rule="evenodd" clip-rule="evenodd" d="M37.6731 27.5877L26.1705 38.8855L24.7391 37.4796L36.2416 26.1818L37.6731 27.5877Z" fill="#545453"/>
    <path fill-rule="evenodd" clip-rule="evenodd" d="M33.8561 23.8387L22.3536 35.1365L20.9221 33.7305L32.4247 22.4328L33.8561 23.8387Z" fill="#545453"/>
    <path fill-rule="evenodd" clip-rule="evenodd" d="M25.7446 15.8717L14.2421 27.1694L12.8106 25.7635L24.3132 14.4657L25.7446 15.8717Z" fill="#545453"/>
    <path fill-rule="evenodd" clip-rule="evenodd" d="M21.9276 12.1227L10.4251 23.4204L8.99365 22.0145L20.4962 10.7167L21.9276 12.1227Z" fill="#545453"/>
    <path fill-rule="evenodd" clip-rule="evenodd" d="M21.9275 12.1224C25.8979 8.22266 32.3209 8.20861 36.2737 12.091C40.2265 15.9734 40.2121 22.2821 36.2417 26.1818L37.6732 27.5878C42.4377 22.9081 42.4548 15.3377 37.7115 10.6788C32.9682 6.0199 25.2606 6.03677 20.4961 10.7165L21.9275 12.1224Z" fill="#545453"/>
    <path fill-rule="evenodd" clip-rule="evenodd" d="M14.2421 27.1694L12.8106 25.7635C9.10491 29.4032 9.09156 35.2913 12.7808 38.9149C16.4701 42.5385 22.4649 42.5253 26.1706 38.8856L24.7392 37.4796C21.8275 40.3395 17.1173 40.3498 14.2186 37.5027C11.3199 34.6556 11.3304 30.0292 14.2421 27.1694Z" fill="#545453"/>
    <path fill-rule="evenodd" clip-rule="evenodd" d="M33.8557 23.8383C36.5026 21.2384 36.5122 17.0326 33.877 14.4444C31.2418 11.8561 26.9598 11.8655 24.3129 14.4653L25.7443 15.8712C27.5971 14.0514 30.5946 14.0448 32.4392 15.8566C34.2838 17.6684 34.2771 20.6124 32.4243 22.4323L33.8557 23.8383Z" fill="#545453"/>
</svg>
