<svg width="36" height="36" viewBox="0 0 36 36" fill="none" xmlns="http://www.w3.org/2000/svg">
    <mask id="path-1-inside-1_311_222" fill="white">
        <path d="M15.1431 0.0316055C14.8841 0.113218 14.6984 0.276442 14.583 0.524092C14.5238 0.650731 14.5238 0.681688 14.5154 2.45745L14.507 4.25855L14.2199 4.34016C13.1278 4.64409 11.8696 5.17879 10.9379 5.73319L10.6987 5.87672L9.38984 4.56811C8.15418 3.3383 8.06974 3.2595 7.92338 3.21166C7.69257 3.13568 7.43643 3.14693 7.23096 3.2398C7.08178 3.30734 6.86505 3.5156 5.17623 5.20693C3.07647 7.30915 3.15528 7.21628 3.15246 7.59057C3.15246 7.99019 3.10461 7.92827 4.54292 9.37196L5.82643 10.6609L5.75887 10.7791C5.38733 11.4432 5.0749 12.0933 4.83284 12.6984C4.66677 13.1149 4.39937 13.9225 4.30086 14.3025L4.2502 14.4994L2.44879 14.5135L0.647381 14.5276L0.486943 14.6064C0.303987 14.6964 0.146364 14.8569 0.0591087 15.0454L0 15.1749V18.0031V20.8314L0.0788116 20.9918C0.168882 21.1748 0.32932 21.3323 0.517905 21.4196C0.644566 21.4787 0.675528 21.4787 2.46286 21.4871L4.27834 21.4956L4.39937 21.9205C4.6921 22.9477 5.24378 24.2394 5.74199 25.0499L5.86583 25.2497L5.70539 25.4186C5.61814 25.5114 5.20156 25.9364 4.78499 26.3613C3.06802 28.1033 3.15246 27.9992 3.15246 28.4016C3.15528 28.5789 3.16935 28.6549 3.22002 28.7675C3.27349 28.8801 3.67037 29.2937 5.17623 30.7993C6.47099 32.0939 7.1043 32.7074 7.18593 32.7468C7.43925 32.8734 7.74042 32.879 8.00219 32.7608C8.06693 32.7299 8.58765 32.2318 9.40109 31.4213L10.6987 30.1324L11.0195 30.3153C11.9428 30.8416 13.0208 31.2946 14.051 31.5901L14.507 31.7224L14.5154 33.5376C14.5238 35.3246 14.5238 35.3555 14.583 35.4822C14.6702 35.6707 14.8278 35.8311 15.0108 35.9212L15.1712 36H18H20.8288L20.9892 35.9212C21.1722 35.8311 21.3298 35.6707 21.417 35.4822C21.4762 35.3555 21.4762 35.3246 21.4846 33.5488L21.493 31.7421L21.6676 31.6943C22.8159 31.3819 23.97 30.9007 25.0058 30.3069L25.3267 30.1239L26.6102 31.4185C28.0569 32.879 28.0147 32.8453 28.4003 32.8453C28.5776 32.8453 28.6565 32.8312 28.7662 32.7805C28.9717 32.6849 32.6787 28.9757 32.78 28.7675C32.8757 28.5677 32.8757 28.2046 32.78 28.0217C32.7378 27.9373 32.2902 27.4673 31.4233 26.5977L30.1285 25.3032L30.2862 25.0358C30.5254 24.6362 30.9476 23.7582 31.1531 23.2376C31.3389 22.7704 31.5697 22.0725 31.6654 21.6982L31.7188 21.4956L33.5343 21.4871C35.3245 21.4787 35.3554 21.4787 35.4821 21.4196C35.6707 21.3323 35.8311 21.1748 35.9212 20.9918L36 20.8314V18.0031V15.1749L35.9212 15.0144C35.8311 14.8315 35.6707 14.6739 35.4821 14.5867C35.3554 14.5276 35.3245 14.5276 33.5484 14.5191L31.7414 14.5107L31.7104 14.3869C31.4543 13.3738 30.9223 12.082 30.3312 11.052L30.1314 10.7031L31.4374 9.39166C32.901 7.92546 32.8504 7.99019 32.8447 7.59057C32.8419 7.21346 32.9095 7.29226 30.8125 5.19286C29.1378 3.51841 28.9182 3.30734 28.769 3.2398C28.5636 3.14693 28.3074 3.13568 28.0766 3.21166C27.9303 3.2595 27.8458 3.3383 26.613 4.56811L25.3013 5.8739L24.9805 5.68816C24.0629 5.16191 22.8948 4.67505 21.8364 4.37956L21.493 4.28387L21.4846 2.46871C21.4762 0.676059 21.4762 0.650731 21.4142 0.521278C21.3298 0.33554 21.1468 0.149802 20.9751 0.0738187L20.8288 0.00627767L18.0422 0.000649251C15.8496 -0.00216496 15.2303 0.00346346 15.1431 0.0316055ZM18.4081 12.7715C20.0407 12.9094 21.4677 13.7481 22.3769 15.1045C22.5767 15.4028 22.8666 15.991 22.982 16.3371C23.6013 18.1748 23.1368 20.2235 21.7858 21.6307C20.218 23.2629 17.8058 23.7132 15.7764 22.7563C14.673 22.2329 13.8174 21.3914 13.2854 20.2967C12.9758 19.6663 12.8266 19.1091 12.7647 18.3831C12.7253 17.9272 12.7618 17.4122 12.8632 16.9197C13.3304 14.6739 15.2529 12.9713 17.5496 12.7715C17.9353 12.7378 18.031 12.7378 18.4081 12.7715Z"/>
    </mask>
    <path d="M15.1431 0.0316055C14.8841 0.113218 14.6984 0.276442 14.583 0.524092C14.5238 0.650731 14.5238 0.681688 14.5154 2.45745L14.507 4.25855L14.2199 4.34016C13.1278 4.64409 11.8696 5.17879 10.9379 5.73319L10.6987 5.87672L9.38984 4.56811C8.15418 3.3383 8.06974 3.2595 7.92338 3.21166C7.69257 3.13568 7.43643 3.14693 7.23096 3.2398C7.08178 3.30734 6.86505 3.5156 5.17623 5.20693C3.07647 7.30915 3.15528 7.21628 3.15246 7.59057C3.15246 7.99019 3.10461 7.92827 4.54292 9.37196L5.82643 10.6609L5.75887 10.7791C5.38733 11.4432 5.0749 12.0933 4.83284 12.6984C4.66677 13.1149 4.39937 13.9225 4.30086 14.3025L4.2502 14.4994L2.44879 14.5135L0.647381 14.5276L0.486943 14.6064C0.303987 14.6964 0.146364 14.8569 0.0591087 15.0454L0 15.1749V18.0031V20.8314L0.0788116 20.9918C0.168882 21.1748 0.32932 21.3323 0.517905 21.4196C0.644566 21.4787 0.675528 21.4787 2.46286 21.4871L4.27834 21.4956L4.39937 21.9205C4.6921 22.9477 5.24378 24.2394 5.74199 25.0499L5.86583 25.2497L5.70539 25.4186C5.61814 25.5114 5.20156 25.9364 4.78499 26.3613C3.06802 28.1033 3.15246 27.9992 3.15246 28.4016C3.15528 28.5789 3.16935 28.6549 3.22002 28.7675C3.27349 28.8801 3.67037 29.2937 5.17623 30.7993C6.47099 32.0939 7.1043 32.7074 7.18593 32.7468C7.43925 32.8734 7.74042 32.879 8.00219 32.7608C8.06693 32.7299 8.58765 32.2318 9.40109 31.4213L10.6987 30.1324L11.0195 30.3153C11.9428 30.8416 13.0208 31.2946 14.051 31.5901L14.507 31.7224L14.5154 33.5376C14.5238 35.3246 14.5238 35.3555 14.583 35.4822C14.6702 35.6707 14.8278 35.8311 15.0108 35.9212L15.1712 36H18H20.8288L20.9892 35.9212C21.1722 35.8311 21.3298 35.6707 21.417 35.4822C21.4762 35.3555 21.4762 35.3246 21.4846 33.5488L21.493 31.7421L21.6676 31.6943C22.8159 31.3819 23.97 30.9007 25.0058 30.3069L25.3267 30.1239L26.6102 31.4185C28.0569 32.879 28.0147 32.8453 28.4003 32.8453C28.5776 32.8453 28.6565 32.8312 28.7662 32.7805C28.9717 32.6849 32.6787 28.9757 32.78 28.7675C32.8757 28.5677 32.8757 28.2046 32.78 28.0217C32.7378 27.9373 32.2902 27.4673 31.4233 26.5977L30.1285 25.3032L30.2862 25.0358C30.5254 24.6362 30.9476 23.7582 31.1531 23.2376C31.3389 22.7704 31.5697 22.0725 31.6654 21.6982L31.7188 21.4956L33.5343 21.4871C35.3245 21.4787 35.3554 21.4787 35.4821 21.4196C35.6707 21.3323 35.8311 21.1748 35.9212 20.9918L36 20.8314V18.0031V15.1749L35.9212 15.0144C35.8311 14.8315 35.6707 14.6739 35.4821 14.5867C35.3554 14.5276 35.3245 14.5276 33.5484 14.5191L31.7414 14.5107L31.7104 14.3869C31.4543 13.3738 30.9223 12.082 30.3312 11.052L30.1314 10.7031L31.4374 9.39166C32.901 7.92546 32.8504 7.99019 32.8447 7.59057C32.8419 7.21346 32.9095 7.29226 30.8125 5.19286C29.1378 3.51841 28.9182 3.30734 28.769 3.2398C28.5636 3.14693 28.3074 3.13568 28.0766 3.21166C27.9303 3.2595 27.8458 3.3383 26.613 4.56811L25.3013 5.8739L24.9805 5.68816C24.0629 5.16191 22.8948 4.67505 21.8364 4.37956L21.493 4.28387L21.4846 2.46871C21.4762 0.676059 21.4762 0.650731 21.4142 0.521278C21.3298 0.33554 21.1468 0.149802 20.9751 0.0738187L20.8288 0.00627767L18.0422 0.000649251C15.8496 -0.00216496 15.2303 0.00346346 15.1431 0.0316055ZM18.4081 12.7715C20.0407 12.9094 21.4677 13.7481 22.3769 15.1045C22.5767 15.4028 22.8666 15.991 22.982 16.3371C23.6013 18.1748 23.1368 20.2235 21.7858 21.6307C20.218 23.2629 17.8058 23.7132 15.7764 22.7563C14.673 22.2329 13.8174 21.3914 13.2854 20.2967C12.9758 19.6663 12.8266 19.1091 12.7647 18.3831C12.7253 17.9272 12.7618 17.4122 12.8632 16.9197C13.3304 14.6739 15.2529 12.9713 17.5496 12.7715C17.9353 12.7378 18.031 12.7378 18.4081 12.7715Z" stroke="#999999" stroke-width="2" mask="url(#path-1-inside-1_311_222)"/>
</svg>
