<svg width="36" height="36" viewBox="0 0 36 36" fill="none" xmlns="http://www.w3.org/2000/svg">
    <path d="M6.00002 15.0352H13.8C14.1318 15.0352 14.4 14.7423 14.4 14.3815C14.4 14.0206 14.1318 13.7278 13.8 13.7278H6.00002C5.66822 13.7278 5.40002 14.0206 5.40002 14.3815C5.40002 14.7423 5.66822 15.0352 6.00002 15.0352Z" fill="white"/>
    <path d="M21.6 17.6499H6.00002C5.66822 17.6499 5.40002 17.9428 5.40002 18.3036C5.40002 18.6645 5.66822 18.9573 6.00002 18.9573H21.6C21.9318 18.9573 22.2 18.6645 22.2 18.3036C22.2 17.9428 21.9318 17.6499 21.6 17.6499Z" fill="white"/>
    <path d="M21.6 21.5721H6.00002C5.66822 21.5721 5.40002 21.865 5.40002 22.2258C5.40002 22.5867 5.66822 22.8795 6.00002 22.8795H21.6C21.9318 22.8795 22.2 22.5867 22.2 22.2258C22.2 21.865 21.9318 21.5721 21.6 21.5721Z" fill="white"/>
    <path d="M32.4432 0.0457592L11.958 0C9.996 0 8.4 1.73885 8.4 3.87645V7.22602L3.558 7.23713C1.596 7.23713 0 8.97598 0 11.1136V24.9335C0 27.0711 1.596 28.8093 3.558 28.8093H7.2V35.3463C7.2 35.6163 7.3524 35.8588 7.584 35.9562C7.6542 35.9856 7.7274 36 7.8 36C7.9656 36 8.1282 35.9248 8.244 35.7862L14.0664 28.808L24.042 28.7635C26.004 28.7635 27.6 27.0247 27.6 24.8877V24.8139L30.756 28.5962C30.8718 28.7348 31.0344 28.8099 31.2 28.8099C31.2726 28.8099 31.3458 28.7956 31.416 28.7661C31.6476 28.6687 31.8 28.4262 31.8 28.1562V21.6192H32.442C34.404 21.6192 36 19.8804 36 17.7434V3.92221C36 1.78526 34.4046 0.0464129 32.4432 0.0457592ZM26.4 24.8871C26.4 26.3036 25.3422 27.4555 24.0396 27.4555L13.7976 27.5012C13.6296 27.5019 13.4688 27.5797 13.356 27.715L8.4 33.6552V28.1549C8.4 27.7941 8.1318 27.5012 7.8 27.5012H3.558C2.2578 27.5012 1.2 26.3487 1.2 24.9328V11.1129C1.2 9.69636 2.2578 8.54388 3.5592 8.54388L9 8.53146C9.0006 8.53146 9.0006 8.53146 9.0012 8.53146L24.042 8.49747C25.3422 8.49747 26.4 9.64994 26.4 11.0665V23.1214V24.8871ZM34.8 17.7421C34.8 19.1587 33.7422 20.3105 32.442 20.3105H31.2C30.8682 20.3105 30.6 20.6034 30.6 20.9642V26.4645L27.6 22.8691V11.0672C27.6 8.92956 26.004 7.19072 24.0408 7.19072L9.6 7.22275V3.8758C9.6 2.45923 10.6578 1.30675 11.9568 1.30675L32.4414 1.35251C32.442 1.35251 32.442 1.35251 32.4426 1.35251C33.7428 1.35251 34.8006 2.50498 34.8006 3.92156V17.7421H34.8Z" fill="white"/>
</svg>
