<svg width="24" height="24" viewBox="0 0 24 24" fill="none" xmlns="http://www.w3.org/2000/svg">
    <path d="M21.628 0H6.372C5.064 0 4 1.10069 4 2.45379V5.7931H2.372C1.064 5.7931 0 6.89379 0 8.24648V16.9945C0 18.3476 1.064 19.4483 2.372 19.4483H4.8V23.5862C4.8 23.7571 4.9016 23.9106 5.056 23.9723C5.1028 23.9909 5.1516 24 5.2 24C5.3104 24 5.4188 23.9524 5.496 23.8647L9.3768 19.4483H17.628C18.936 19.4483 20 18.3476 20 16.9949V13.6552H21.628C22.936 13.6552 24 12.5545 24 11.2014V2.45379C24 1.10069 22.936 0 21.628 0ZM19.2 16.9949C19.2 17.8912 18.4948 18.6207 17.628 18.6207H9.2C9.0872 18.6207 8.9796 18.6699 8.904 18.756L5.6 22.5161V19.0345C5.6 18.8061 5.4212 18.6207 5.2 18.6207H2.372C1.5052 18.6207 0.8 17.8912 0.8 16.9945V8.24648C0.8 7.35021 1.5052 6.62069 2.372 6.62069H4.4H17.628C18.4948 6.62069 19.2 7.35021 19.2 8.2469V13.2414V16.9949ZM23.2 11.2014C23.2 12.0981 22.4948 12.8276 21.628 12.8276H20V8.2469C20 6.89379 18.936 5.7931 17.628 5.7931H4.8V2.45379C4.8 1.5571 5.5052 0.827586 6.372 0.827586H21.628C22.4948 0.827586 23.2 1.5571 23.2 2.45379V11.2014Z" fill="#8A8A8A"/>
</svg>
