<svg width="24" height="24" viewBox="0 0 24 24" fill="none" xmlns="http://www.w3.org/2000/svg">
    <mask id="path-1-inside-1_47_451" fill="white">
        <path d="M10.0954 0.0210686C9.92275 0.0754776 9.79891 0.184294 9.72197 0.349394C9.68256 0.433821 9.68256 0.454458 9.67694 1.6383L9.67131 2.83903L9.47991 2.89344C8.75184 3.09606 7.91306 3.45253 7.29195 3.82213L7.13245 3.91781L6.25989 3.0454C5.43612 2.22553 5.37983 2.173 5.28225 2.14111C5.12838 2.09045 4.95762 2.09796 4.82064 2.15987C4.72119 2.2049 4.5767 2.34373 3.45082 3.47129C2.05098 4.87276 2.10352 4.81085 2.10164 5.06038C2.10164 5.32679 2.06974 5.28551 3.02862 6.24797L3.88428 7.10725L3.83925 7.18604C3.59156 7.62881 3.38327 8.0622 3.22189 8.46557C3.11118 8.74324 2.93292 9.28169 2.86724 9.53497L2.83346 9.6663L1.63253 9.67568L0.431587 9.68506L0.324629 9.73759C0.202658 9.79763 0.0975762 9.90457 0.0394058 10.0303L0 10.1166V12.0021V13.8876L0.052541 13.9946C0.112588 14.1165 0.219547 14.2216 0.34527 14.2797C0.429711 14.3191 0.450352 14.3191 1.64191 14.3248L2.85223 14.3304L2.93292 14.6137C3.12807 15.2985 3.49586 16.1596 3.82799 16.6999L3.91056 16.8331L3.8036 16.9457C3.74543 17.0076 3.46771 17.2909 3.18999 17.5742C2.04535 18.7356 2.10164 18.6661 2.10164 18.9344C2.10352 19.0526 2.1129 19.1033 2.14668 19.1783C2.18233 19.2534 2.44691 19.5292 3.45082 20.5329C4.314 21.3959 4.7362 21.8049 4.79062 21.8312C4.9595 21.9156 5.16028 21.9194 5.33479 21.8406C5.37795 21.8199 5.7251 21.4879 6.2674 20.9475L7.13245 20.0883L7.34636 20.2102C7.96184 20.561 8.68053 20.8631 9.36732 21.0601L9.67131 21.1483L9.67694 22.3584C9.68256 23.5497 9.68256 23.5704 9.72197 23.6548C9.78014 23.7805 9.88522 23.8874 10.0072 23.9475L10.1142 24H12H13.8858L13.9928 23.9475C14.1148 23.8874 14.2199 23.7805 14.278 23.6548C14.3174 23.5704 14.3174 23.5497 14.3231 22.3659L14.3287 21.1614L14.445 21.1295C15.2106 20.9213 15.98 20.6004 16.6705 20.2046L16.8844 20.0826L17.7401 20.9456C18.7046 21.9194 18.6765 21.8968 18.9335 21.8968C19.0518 21.8968 19.1043 21.8875 19.1775 21.8537C19.3145 21.7899 21.7858 19.3172 21.8533 19.1783C21.9171 19.0451 21.9171 18.8031 21.8533 18.6811C21.8252 18.6249 21.5268 18.3115 20.9489 17.7318L20.0857 16.8688L20.1908 16.6906C20.3503 16.4242 20.6317 15.8388 20.7687 15.4917C20.8926 15.1803 21.0464 14.715 21.1102 14.4655L21.1459 14.3304L22.3562 14.3248C23.5496 14.3191 23.5703 14.3191 23.6547 14.2797C23.7805 14.2216 23.8874 14.1165 23.9475 13.9946L24 13.8876V12.0021V10.1166L23.9475 10.0096C23.8874 9.88768 23.7805 9.78262 23.6547 9.72446C23.5703 9.68506 23.5496 9.68506 22.3656 9.67943L21.1609 9.6738L21.1403 9.59125C20.9695 8.91584 20.6149 8.0547 20.2208 7.36803L20.0876 7.13539L20.9582 6.26111C21.934 5.28364 21.9002 5.32679 21.8965 5.06038C21.8946 4.80898 21.9396 4.86151 20.5417 3.46191C19.4252 2.34561 19.2788 2.2049 19.1794 2.15987C19.0424 2.09796 18.8716 2.09045 18.7177 2.14111C18.6202 2.173 18.5639 2.22553 17.742 3.0454L16.8676 3.91593L16.6536 3.79211C16.0419 3.44127 15.2632 3.1167 14.5576 2.9197L14.3287 2.85592L14.3231 1.64581C14.3174 0.450705 14.3174 0.433821 14.2762 0.347517C14.2199 0.223692 14.0979 0.0998669 13.9834 0.0492115L13.8858 0.00418472L12.0281 0.000431061C10.5664 -0.00144386 10.1536 0.00230789 10.0954 0.0210686ZM12.2721 8.51435C13.3604 8.60628 14.3118 9.16537 14.9179 10.0697C15.0511 10.2685 15.2444 10.6607 15.3213 10.8914C15.7342 12.1165 15.4246 13.4824 14.5238 14.4204C13.4787 15.5086 11.8705 15.8088 10.5176 15.1709C9.78202 14.8219 9.21157 14.261 8.85692 13.5311C8.65051 13.1109 8.55106 12.7394 8.50977 12.2554C8.4835 11.9514 8.5079 11.6081 8.57545 11.2798C8.88694 9.78262 10.1686 8.64756 11.6998 8.51435C11.9568 8.49184 12.0206 8.49184 12.2721 8.51435Z"/>
    </mask>
    <path d="M10.0954 0.0210686C9.92275 0.0754776 9.79891 0.184294 9.72197 0.349394C9.68256 0.433821 9.68256 0.454458 9.67694 1.6383L9.67131 2.83903L9.47991 2.89344C8.75184 3.09606 7.91306 3.45253 7.29195 3.82213L7.13245 3.91781L6.25989 3.0454C5.43612 2.22553 5.37983 2.173 5.28225 2.14111C5.12838 2.09045 4.95762 2.09796 4.82064 2.15987C4.72119 2.2049 4.5767 2.34373 3.45082 3.47129C2.05098 4.87276 2.10352 4.81085 2.10164 5.06038C2.10164 5.32679 2.06974 5.28551 3.02862 6.24797L3.88428 7.10725L3.83925 7.18604C3.59156 7.62881 3.38327 8.0622 3.22189 8.46557C3.11118 8.74324 2.93292 9.28169 2.86724 9.53497L2.83346 9.6663L1.63253 9.67568L0.431587 9.68506L0.324629 9.73759C0.202658 9.79763 0.0975762 9.90457 0.0394058 10.0303L0 10.1166V12.0021V13.8876L0.052541 13.9946C0.112588 14.1165 0.219547 14.2216 0.34527 14.2797C0.429711 14.3191 0.450352 14.3191 1.64191 14.3248L2.85223 14.3304L2.93292 14.6137C3.12807 15.2985 3.49586 16.1596 3.82799 16.6999L3.91056 16.8331L3.8036 16.9457C3.74543 17.0076 3.46771 17.2909 3.18999 17.5742C2.04535 18.7356 2.10164 18.6661 2.10164 18.9344C2.10352 19.0526 2.1129 19.1033 2.14668 19.1783C2.18233 19.2534 2.44691 19.5292 3.45082 20.5329C4.314 21.3959 4.7362 21.8049 4.79062 21.8312C4.9595 21.9156 5.16028 21.9194 5.33479 21.8406C5.37795 21.8199 5.7251 21.4879 6.2674 20.9475L7.13245 20.0883L7.34636 20.2102C7.96184 20.561 8.68053 20.8631 9.36732 21.0601L9.67131 21.1483L9.67694 22.3584C9.68256 23.5497 9.68256 23.5704 9.72197 23.6548C9.78014 23.7805 9.88522 23.8874 10.0072 23.9475L10.1142 24H12H13.8858L13.9928 23.9475C14.1148 23.8874 14.2199 23.7805 14.278 23.6548C14.3174 23.5704 14.3174 23.5497 14.3231 22.3659L14.3287 21.1614L14.445 21.1295C15.2106 20.9213 15.98 20.6004 16.6705 20.2046L16.8844 20.0826L17.7401 20.9456C18.7046 21.9194 18.6765 21.8968 18.9335 21.8968C19.0518 21.8968 19.1043 21.8875 19.1775 21.8537C19.3145 21.7899 21.7858 19.3172 21.8533 19.1783C21.9171 19.0451 21.9171 18.8031 21.8533 18.6811C21.8252 18.6249 21.5268 18.3115 20.9489 17.7318L20.0857 16.8688L20.1908 16.6906C20.3503 16.4242 20.6317 15.8388 20.7687 15.4917C20.8926 15.1803 21.0464 14.715 21.1102 14.4655L21.1459 14.3304L22.3562 14.3248C23.5496 14.3191 23.5703 14.3191 23.6547 14.2797C23.7805 14.2216 23.8874 14.1165 23.9475 13.9946L24 13.8876V12.0021V10.1166L23.9475 10.0096C23.8874 9.88768 23.7805 9.78262 23.6547 9.72446C23.5703 9.68506 23.5496 9.68506 22.3656 9.67943L21.1609 9.6738L21.1403 9.59125C20.9695 8.91584 20.6149 8.0547 20.2208 7.36803L20.0876 7.13539L20.9582 6.26111C21.934 5.28364 21.9002 5.32679 21.8965 5.06038C21.8946 4.80898 21.9396 4.86151 20.5417 3.46191C19.4252 2.34561 19.2788 2.2049 19.1794 2.15987C19.0424 2.09796 18.8716 2.09045 18.7177 2.14111C18.6202 2.173 18.5639 2.22553 17.742 3.0454L16.8676 3.91593L16.6536 3.79211C16.0419 3.44127 15.2632 3.1167 14.5576 2.9197L14.3287 2.85592L14.3231 1.64581C14.3174 0.450705 14.3174 0.433821 14.2762 0.347517C14.2199 0.223692 14.0979 0.0998669 13.9834 0.0492115L13.8858 0.00418472L12.0281 0.000431061C10.5664 -0.00144386 10.1536 0.00230789 10.0954 0.0210686ZM12.2721 8.51435C13.3604 8.60628 14.3118 9.16537 14.9179 10.0697C15.0511 10.2685 15.2444 10.6607 15.3213 10.8914C15.7342 12.1165 15.4246 13.4824 14.5238 14.4204C13.4787 15.5086 11.8705 15.8088 10.5176 15.1709C9.78202 14.8219 9.21157 14.261 8.85692 13.5311C8.65051 13.1109 8.55106 12.7394 8.50977 12.2554C8.4835 11.9514 8.5079 11.6081 8.57545 11.2798C8.88694 9.78262 10.1686 8.64756 11.6998 8.51435C11.9568 8.49184 12.0206 8.49184 12.2721 8.51435Z" stroke="#8A8A8A" stroke-width="2" mask="url(#path-1-inside-1_47_451)"/>
</svg>
