<svg width="16" height="16" viewBox="0 0 16 16" fill="none" xmlns="http://www.w3.org/2000/svg">
    <g clip-path="url(#clip0_378_400)">
        <path fill-rule="evenodd" clip-rule="evenodd" d="M6.5 14C5.73181 14 4.99475 13.8975 4.31067 13.7093C3.48785 14.3326 2.18533 15.1311 0.912598 15.1311C1.55176 14.5261 1.77245 13.403 1.83911 12.4851C0.700912 11.5845 0 10.3552 0 9C0 6.23858 2.91015 4 6.5 4C10.0899 4 13 6.23858 13 9C13 11.7614 10.0899 14 6.5 14ZM5.34528 3.15457C6.47175 2.43362 7.92006 2 9.5 2C13.0899 2 16 4.23858 16 7C16 7.90607 15.6867 8.75584 15.1389 9.48872C15.1159 10.3656 15.1792 12.2714 16.0874 13.1311C14.8135 13.1311 13.5097 12.3311 12.687 11.7075C13.5133 10.8046 14 9.69698 14 8.5C14 5.46243 10.866 3 7 3C6.42995 3 5.87579 3.05355 5.34528 3.15457Z" fill="black"/>
    </g>
    <defs>
        <clipPath id="clip0_378_400">
            <rect width="16" height="16" fill="white"/>
        </clipPath>
    </defs>
</svg>
